<svg id="visual" viewBox="0 0 1920 1080" width="1920" height="1080" xmlns="http://www.w3.org/2000/svg" xmlns:xlink="http://www.w3.org/1999/xlink" version="1.1"><rect x="0" y="0" width="1920" height="1080" fill="#ffffff"></rect><defs><linearGradient id="grad1_0" x1="43.8%" y1="100%" x2="100%" y2="0%"><stop offset="14.444444444444446%" stop-color="#ffffff" stop-opacity="1"></stop><stop offset="85.55555555555554%" stop-color="#ffffff" stop-opacity="1"></stop></linearGradient></defs><defs><linearGradient id="grad2_0" x1="0%" y1="100%" x2="56.3%" y2="0%"><stop offset="14.444444444444446%" stop-color="#ffffff" stop-opacity="1"></stop><stop offset="85.55555555555554%" stop-color="#ffffff" stop-opacity="1"></stop></linearGradient></defs><g transform="translate(1920, 1080)"><path d="M-756 0C-654.8 -84.4 -553.5 -168.9 -503.2 -290.5C-452.8 -412.1 -453.4 -570.9 -378 -654.7C-302.6 -738.5 -151.3 -747.2 0 -756L0 0Z" fill="#447483"></path></g><g transform="translate(0, 0)"><path d="M756 0C698.6 109.8 641.3 219.5 585.4 338C529.6 456.5 475.3 583.6 378 654.7C280.7 725.8 140.3 740.9 0 756L0 0Z" fill="#447483"></path></g></svg>