<svg id="visual" viewBox="0 0 900 600" width="900" height="600" xmlns="http://www.w3.org/2000/svg" xmlns:xlink="http://www.w3.org/1999/xlink" version="1.1"><rect x="0" y="0" width="900" height="600" fill="#001220"></rect><defs><linearGradient id="grad1_0" x1="33.3%" y1="100%" x2="100%" y2="0%"><stop offset="20%" stop-color="#001220" stop-opacity="1"></stop><stop offset="80%" stop-color="#001220" stop-opacity="1"></stop></linearGradient></defs><defs><linearGradient id="grad2_0" x1="0%" y1="100%" x2="66.7%" y2="0%"><stop offset="20%" stop-color="#001220" stop-opacity="1"></stop><stop offset="80%" stop-color="#001220" stop-opacity="1"></stop></linearGradient></defs><g transform="translate(900, 600)"><path d="M-243.4 0C-222.3 -33.8 -201.2 -67.7 -183.6 -106C-165.9 -144.3 -151.7 -187.1 -121.7 -210.8C-91.7 -234.4 -45.8 -238.9 0 -243.4L0 0Z" fill="#887dee"></path></g><g transform="translate(0, 0)"><path d="M243.4 0C232.5 39.7 221.6 79.4 202.6 117C183.7 154.6 156.8 190.1 121.7 210.8C86.6 231.5 43.3 237.4 0 243.4L0 0Z" fill="#887dee"></path></g></svg>