<svg id="visual" viewBox="0 0 900 600" width="900" height="600" xmlns="http://www.w3.org/2000/svg" xmlns:xlink="http://www.w3.org/1999/xlink" version="1.1"><rect x="0" y="0" width="900" height="600" fill="#001220"></rect><path d="M0 240L30 244.2C60 248.3 120 256.7 180 248.5C240 240.3 300 215.7 360 202.2C420 188.7 480 186.3 540 200.2C600 214 660 244 720 241.8C780 239.7 840 205.3 870 188.2L900 171L900 601L870 601C840 601 780 601 720 601C660 601 600 601 540 601C480 601 420 601 360 601C300 601 240 601 180 601C120 601 60 601 30 601L0 601Z" fill="#5b76d8"></path><path d="M0 195L30 208.2C60 221.3 120 247.7 180 261.3C240 275 300 276 360 264C420 252 480 227 540 217.5C600 208 660 214 720 223.7C780 233.3 840 246.7 870 253.3L900 260L900 601L870 601C840 601 780 601 720 601C660 601 600 601 540 601C480 601 420 601 360 601C300 601 240 601 180 601C120 601 60 601 30 601L0 601Z" fill="#526dd2"></path><path d="M0 341L30 330.3C60 319.7 120 298.3 180 298.2C240 298 300 319 360 323.2C420 327.3 480 314.7 540 297.2C600 279.7 660 257.3 720 253.7C780 250 840 265 870 272.5L900 280L900 601L870 601C840 601 780 601 720 601C660 601 600 601 540 601C480 601 420 601 360 601C300 601 240 601 180 601C120 601 60 601 30 601L0 601Z" fill="#4a63cd"></path><path d="M0 335L30 341.7C60 348.3 120 361.7 180 361.7C240 361.7 300 348.3 360 345.2C420 342 480 349 540 350C600 351 660 346 720 333.7C780 321.3 840 301.7 870 291.8L900 282L900 601L870 601C840 601 780 601 720 601C660 601 600 601 540 601C480 601 420 601 360 601C300 601 240 601 180 601C120 601 60 601 30 601L0 601Z" fill="#425ac7"></path><path d="M0 356L30 359.7C60 363.3 120 370.7 180 371.2C240 371.7 300 365.3 360 370.5C420 375.7 480 392.3 540 398.8C600 405.3 660 401.7 720 392.7C780 383.7 840 369.3 870 362.2L900 355L900 601L870 601C840 601 780 601 720 601C660 601 600 601 540 601C480 601 420 601 360 601C300 601 240 601 180 601C120 601 60 601 30 601L0 601Z" fill="#3951c1"></path><path d="M0 390L30 399.8C60 409.7 120 429.3 180 429C240 428.7 300 408.3 360 407.5C420 406.7 480 425.3 540 426.2C600 427 660 410 720 408.3C780 406.7 840 420.3 870 427.2L900 434L900 601L870 601C840 601 780 601 720 601C660 601 600 601 540 601C480 601 420 601 360 601C300 601 240 601 180 601C120 601 60 601 30 601L0 601Z" fill="#3147bb"></path><path d="M0 425L30 429C60 433 120 441 180 446.3C240 451.7 300 454.3 360 451.7C420 449 480 441 540 437.3C600 433.7 660 434.3 720 435.8C780 437.3 840 439.7 870 440.8L900 442L900 601L870 601C840 601 780 601 720 601C660 601 600 601 540 601C480 601 420 601 360 601C300 601 240 601 180 601C120 601 60 601 30 601L0 601Z" fill="#283eb5"></path><path d="M0 520L30 522.3C60 524.7 120 529.3 180 523.7C240 518 300 502 360 503.3C420 504.7 480 523.3 540 527.3C600 531.3 660 520.7 720 508.8C780 497 840 484 870 477.5L900 471L900 601L870 601C840 601 780 601 720 601C660 601 600 601 540 601C480 601 420 601 360 601C300 601 240 601 180 601C120 601 60 601 30 601L0 601Z" fill="#1f34af"></path><path d="M0 537L30 538.3C60 539.7 120 542.3 180 543.2C240 544 300 543 360 550.2C420 557.3 480 572.7 540 572.2C600 571.7 660 555.3 720 543C780 530.7 840 522.3 870 518.2L900 514L900 601L870 601C840 601 780 601 720 601C660 601 600 601 540 601C480 601 420 601 360 601C300 601 240 601 180 601C120 601 60 601 30 601L0 601Z" fill="#142aa8"></path></svg>